Coordinates
version=1
nRows=8
nColumns=40
inDegrees=yes

Units are S.I. units (second, meters, Newtons, ...)
Angles are in degrees.

endheader
time	pelvis_tilt	pelvis_list	pelvis_rotation	pelvis_tx	pelvis_ty	pelvis_tz	hip_flexion_r	hip_adduction_r	hip_rotation_r	knee_angle_r	knee_angle_r_beta	ankle_angle_r	subtalar_angle_r	mtp_angle_r	hip_flexion_l	hip_adduction_l	hip_rotation_l	knee_angle_l	knee_angle_l_beta	ankle_angle_l	subtalar_angle_l	mtp_angle_l	lumbar_extension	lumbar_bending	lumbar_rotation	arm_flex_r	arm_add_r	arm_rot_r	elbow_flex_r	pro_sup_r	wrist_flex_r	wrist_dev_r	arm_flex_l	arm_add_l	arm_rot_l	elbow_flex_l	pro_sup_l	wrist_flex_l	wrist_dev_l
     13.63750000	     -3.12804035	     -4.98190540	     -0.40123626	      1.04903404	      0.92432862	      0.46760581	     20.67505743	      0.83399558	    -16.09405238	     18.80117104	     18.80117104	      2.95259600	     -2.31940826	     -1.92036433	      5.50260236	    -12.20209536	     -6.70462011	     41.11627495	     41.11627495	      8.17800203	    -15.50738592	    -14.23213090	    -12.96270401	      3.75877617	      1.80369422	    -10.16440131	    -14.18287235	     -3.40707028	     38.68213926	     45.90673080	      0.00000000	      0.00000000	     12.41147874	    -14.16649531	     -2.76326419	     98.69891671	     48.03573475	      0.00000000	      0.00000000
     13.64885714	     -3.21338609	     -5.18835037	     -0.29859008	      1.04954540	      0.92537693	      0.47068437	     19.92055329	      1.26927597	    -16.42642672	     18.36615058	     18.36615058	      3.39470463	     -1.87612490	     -2.22749204	      7.63346944	    -12.81233318	     -5.45916041	     45.14728768	     45.14728768	      5.91541385	    -16.83525170	    -13.14439612	    -12.94143216	      3.84930855	      1.83542935	     -8.93981215	    -14.27740737	     -2.85812994	     40.43345099	     45.81043387	      0.00000000	      0.00000000	     11.32050462	    -13.83858737	     -2.96420779	     96.13803560	     48.01129290	      0.00000000	      0.00000000
     13.66021429	     -3.33232353	     -5.52244338	     -0.18619024	      1.04982424	      0.92615145	      0.47364563	     19.18990817	      1.85965484	    -16.76556740	     17.85940676	     17.85940676	      3.72501657	     -1.57077002	     -2.32972181	      9.95311886	    -13.57528659	     -4.28190434	     49.18691115	     49.18691115	      3.54779011	    -17.72146475	    -12.27025555	    -12.95046011	      4.06644837	      1.90641882	     -7.41430589	    -14.26397604	     -2.82295586	     41.53811995	     45.77464566	      0.00000000	      0.00000000	     10.03490796	    -13.63801514	     -2.70127554	     94.47661824	     47.95928609	      0.00000000	      0.00000000
     13.67157143	     -3.49756547	     -5.61812716	     -0.05962260	      1.04987218	      0.92675415	      0.47610675	     18.55398200	      2.13954880	    -17.05305937	     17.41266554	     17.41266554	      4.01339403	     -1.11398778	     -2.90723611	     12.60794172	    -13.70125405	     -2.65829021	     53.54417944	     53.54417944	      3.52625356	    -17.69448080	     -5.29445489	    -12.83436339	      4.11972017	      2.21947524	     -7.00495310	    -14.71675648	     -1.93351238	     45.53578154	     45.57360461	      0.00000000	      0.00000000	      9.49719013	    -13.22167789	     -2.47655037	     90.31873005	     47.89749058	      0.00000000	      0.00000000
     13.68292857	     -3.64869907	     -5.82093501	      0.08677650	      1.04971229	      0.92714222	      0.47837541	     17.96939531	      2.51311290	    -17.35591176	     17.06442782	     17.06442782	      4.35271625	     -0.74792012	     -3.18589995	     15.18152724	    -13.95269032	     -1.23922271	     57.37823230	     57.37823230	      2.59462363	    -17.99280381	     -1.15553850	    -12.76676190	      4.28827243	      2.48494784	     -5.88078041	    -14.97936409	     -1.88924054	     47.75730421	     45.49573155	      0.00000000	      0.00000000	      8.97250675	    -12.46269507	     -2.78114112	     86.39955884	     47.85822895	      0.00000000	      0.00000000
     13.69428571	     -3.77573602	     -6.02421918	      0.25609386	      1.04932165	      0.92744420	      0.48044969	     17.41056403	      2.87951331	    -17.59819649	     16.76945963	     16.76945963	      4.67945924	     -0.53406335	     -3.38154933	     17.74026658	    -14.11357230	      0.13753529	     60.87467328	     60.87467328	      2.08194766	    -18.16591329	      3.16383807	    -12.74998487	      4.46884755	      2.68134349	     -4.70188041	    -15.22296425	     -2.00791391	     50.38059340	     45.41418575	      0.00000000	      0.00000000	      8.43055479	    -12.00798485	     -2.64012589	     82.36579109	     47.78531791	      0.00000000	      0.00000000
     13.70564286	     -3.89255537	     -6.33981852	      0.47715153	      1.04876440	      0.92756869	      0.48242962	     16.86974152	      3.36134616	    -17.86579867	     16.49833536	     16.49833536	      5.02316051	     -0.45532453	     -3.46436644	     20.18187811	    -14.46556189	      1.31507319	     63.77123327	     63.77123327	      0.76572036	    -18.53790624	      4.03529335	    -12.79736834	      4.72643718	      2.41779305	     -2.73202681	    -15.23663465	     -2.25914873	     51.86712244	     45.38278820	      0.00000000	      0.00000000	      7.11642331	    -12.01223169	     -2.35490403	     80.02675981	     47.71855259	      0.00000000	      0.00000000
     13.71700000	     -3.97363657	     -6.44702928	      0.61481007	      1.04806052	      0.92781612	      0.48414464	     16.35315874	      3.60890257	    -17.90906927	     16.32223977	     16.32223977	      5.39706741	     -0.35265509	     -3.61067586	     22.59469402	    -14.44134466	      2.35472348	     66.44659383	     66.44659383	      1.32569711	    -18.55290723	      8.73579506	    -12.80448379	      4.84997081	      3.04772858	     -1.94233842	    -15.67613475	     -2.17424854	     55.57222273	     45.25698977	      0.00000000	      0.00000000	      7.70654384	    -10.93422217	     -2.76457129	     73.33816656	     47.63583023	      0.00000000	      0.00000000
